<?xml version="1.0" encoding="UTF-8"?>
<svg width="339px" height="339px" viewBox="0 0 339 339" version="1.1" xmlns="http://www.w3.org/2000/svg" xmlns:xlink="http://www.w3.org/1999/xlink">
    <!-- Generator: Sketch 48.2 (47327) - http://www.bohemiancoding.com/sketch -->
    <title>LOGO Star</title>
    <desc>Created with Sketch.</desc>
    <defs></defs>
    <g id="slack-profile" stroke="none" stroke-width="1" fill="none" fill-rule="evenodd" transform="translate(-31.000000, -31.000000)">
        <g id="LOGO-Star" transform="translate(31.000000, 31.000000)" fill="#000000">
            <path d="M307.341243,172.126192 L199.658436,225.246621 L122.533393,199.07908 L124.187774,198.267983 L231.870581,145.147555 L308.995624,171.315095 L307.341243,172.126192 Z M167.684469,308.995624 L118.922079,210.144763 L192.764109,235.069909 L167.684469,308.995624 Z M171.315095,29.9975035 L223.759609,136.322045 L117.441505,188.766559 L171.315095,29.9975035 Z M103.20868,192.519493 L29.9975035,167.684469 L31.6518843,166.873372 L129.02217,118.838395 L103.936093,192.770547 L103.20868,192.519493 Z M169.345288,-0.000217773019 L134.249241,103.427548 L133.966001,103.562731 L-0.000217773019,169.64784 L103.427548,204.743886 L169.654277,338.999782 L204.750323,235.572016 L205.033564,235.436834 L338.999782,169.33885 L235.565579,134.242804 L169.345288,-0.000217773019 Z" id="logo"></path>
        </g>
    </g>
</svg>