<?xml version="1.0" encoding="UTF-8"?>
<svg width="266px" height="209px" viewBox="0 0 266 209" version="1.1" xmlns="http://www.w3.org/2000/svg" xmlns:xlink="http://www.w3.org/1999/xlink">
    <!-- Generator: Sketch 49.2 (51160) - http://www.bohemiancoding.com/sketch -->
    <title>nebulas-logo</title>
    <desc>Created with Sketch.</desc>
    <defs></defs>
    <g id="Page-1" stroke="none" stroke-width="1" fill="none" fill-rule="evenodd">
        <g id="nebulas-logo" fill="#FFFFFF" fill-rule="nonzero">
            <path d="M9.64160156,196.025681 L5.26036072,196.025681 L5.26036072,207.902557 L4.37768555,207.902557 L4.37768555,196.025681 L0,196.025681 L0,195.301498 L9.64160156,195.301498 L9.64160156,196.025681 Z M23.592926,207.898575 L22.7048492,207.898575 L22.7048492,201.764786 L15.1961212,201.764786 L15.1961212,207.898575 L14.3109589,207.898575 L14.3109589,195.302917 L15.1961212,195.302917 L15.1961212,201.052582 L22.7048492,201.052582 L22.7048492,195.302917 L23.592926,195.302917 L23.592926,207.898575 Z M30.5664673,207.90123 L29.6835022,207.90123 L29.6835022,195.297668 L30.5664673,195.297668 L30.5664673,207.90123 Z M45.9617767,207.906677 L45.0406494,207.906677 L37.5245209,196.718582 L37.5245209,207.906677 L36.6350555,207.906677 L36.6350555,195.299332 L37.5693054,195.299332 L45.0916443,206.495209 L45.0916443,195.299332 L45.9617767,195.299332 L45.9617767,207.906677 Z M54.6084137,201.497299 L52.6955109,203.37709 L52.6955109,207.90242 L51.8160553,207.90242 L51.8160553,195.301865 L52.6955109,195.301865 L52.6955109,202.35817 L59.3920135,195.301865 L60.4871979,195.301865 L55.2260437,200.896561 L60.9189148,207.90242 L59.8577728,207.90242 L54.6084137,201.497299 Z M66.6896667,207.902878 L65.8040466,207.902878 L65.8040466,195.302307 L66.6896667,195.302307 L66.6896667,207.902878 Z M82.0884552,207.906784 L81.1627197,207.906784 L73.6511841,196.720688 L73.6511841,207.906784 L72.7616272,207.906784 L72.7616272,195.303421 L73.6986389,195.303421 L81.2179413,206.495834 L81.2179413,195.303421 L82.0884552,195.303421 L82.0884552,207.906784 Z M96.9812469,206.45224 C96.6062451,206.985446 96.0615885,207.340163 95.2617798,207.638992 C94.4619711,207.937822 93.6201198,208.077988 92.6298804,208.077988 C91.6279223,208.077988 90.7797585,207.84334 90.0004578,207.362869 C89.221157,206.882398 88.6519797,206.232594 88.2242432,205.353683 C87.7965067,204.474773 87.6025696,203.525976 87.5967102,202.389252 L87.5967102,200.781052 C87.5967102,199.005652 88.029918,197.655523 88.9264069,196.627197 C89.8228957,195.598872 90.9423729,195.12941 92.4540992,195.12941 C93.7724651,195.12941 94.7565573,195.429516 95.5592957,196.100418 C96.362034,196.77132 96.8004295,197.527048 96.952774,198.704788 L96.0716553,198.704788 C95.9134514,197.767284 95.4682953,197.052859 94.8618469,196.569458 C94.2553986,196.086057 93.4326197,195.851562 92.4540992,195.851562 C91.2587807,195.851562 90.2267033,196.334743 89.5294342,197.184357 C88.8321651,198.03397 88.475235,199.26931 88.475235,200.816193 L88.475235,202.33725 C88.475235,203.309911 88.6545546,204.206127 88.985611,204.953201 C89.3166673,205.700275 89.8393982,206.329664 90.4575653,206.739822 C91.0757325,207.149981 91.857662,207.362869 92.6604004,207.362869 C93.5920457,207.362869 94.4120603,207.202745 95.0800323,206.909775 C95.5136283,206.716414 95.8870992,206.443742 96.0980377,206.185928 L96.0980377,202.742798 L92.6604004,202.742798 L92.6604004,202.027557 L96.9812469,202.027557 L96.9812469,206.45224 Z M110.537277,207.904724 L109.655258,207.904724 L109.655258,195.302246 L110.537277,195.302246 L110.537277,207.904724 Z M125.937698,207.917511 L125.030136,207.917511 L117.499222,196.714844 L117.499222,207.917511 L116.616409,207.917511 L116.616409,195.292633 L117.539505,195.292633 L125.069382,206.49588 L125.069382,195.292633 L125.937698,195.292633 L125.937698,207.917511 Z M138.566757,207.904617 L138.566757,195.303696 L142.254669,195.303696 C143.62577,195.303696 144.606579,195.574948 145.315567,196.140381 C146.024555,196.705813 146.329132,197.44694 146.329132,198.548508 C146.329132,199.21062 146.153808,199.767881 145.793455,200.257141 C145.433102,200.746401 144.670502,201.226562 144.028305,201.354553 C144.793793,201.43866 145.6284,201.862393 146.082504,202.430756 C146.536608,202.999118 146.789276,203.62376 146.789276,204.367905 C146.789276,205.49877 146.448688,206.346753 145.719193,206.982498 C144.989697,207.618244 144.056815,207.904617 142.756027,207.904617 L138.566757,207.904617 Z M139.44838,201.741318 L139.44838,207.187866 L142.788101,207.187866 C143.713887,207.187866 144.521894,206.923998 145.063889,206.452316 C145.605883,205.980634 145.910355,205.251522 145.910355,204.413628 C145.910355,203.622608 145.619158,202.921755 145.100601,202.461792 C144.582044,202.001829 143.784764,201.741318 142.870697,201.741318 L139.44838,201.741318 Z M139.444962,201.045303 L142.502991,201.045303 C143.405339,201.027725 144.180478,200.779406 144.675598,200.372177 C145.170718,199.964949 145.443207,199.315327 145.443207,198.536026 C145.443207,197.715709 145.146502,197.015917 144.633804,196.626266 C144.121106,196.236616 143.280584,196.023575 142.243469,196.023575 L139.444962,196.023575 L139.444962,201.045303 Z M152.885208,207.18721 L159.202637,207.18721 L159.202637,207.903732 L152.000061,207.903732 L152.000061,195.297836 L152.885208,195.297836 L152.885208,207.18721 Z M172.560135,202.290009 C172.560135,203.467749 172.385943,204.48373 171.978714,205.374359 C171.571485,206.264989 171.002521,206.891202 170.246658,207.371674 C169.490795,207.852145 168.682816,208.076721 167.692576,208.076721 C166.198428,208.076721 165.053334,207.573522 164.133408,206.504181 C163.213481,205.43484 162.797745,204.064279 162.797745,202.247864 L162.797745,200.938141 C162.797745,199.772119 162.996839,198.766179 163.409927,197.86676 C163.823015,196.967342 164.388989,196.305392 165.144852,195.821991 C165.900715,195.33859 166.708196,195.130981 167.692576,195.130981 C168.676956,195.130981 169.493725,195.347379 170.246658,195.821991 C170.999592,196.296603 171.527265,196.945064 171.937424,197.812256 C172.347582,198.679448 172.542557,199.617823 172.560135,200.760406 L172.560135,202.290009 Z M171.695786,200.899475 C171.695786,199.358452 171.302234,198.066228 170.604965,197.193176 C169.907696,196.320125 168.89229,195.879486 167.679393,195.879486 C166.489934,195.879486 165.428669,196.365077 164.72261,197.241058 C164.016552,198.117039 163.668289,199.396599 163.668289,200.966919 L163.668289,202.296936 C163.668289,203.814522 164.055188,205.100856 164.758316,205.988556 C165.461445,206.876256 166.472356,207.346497 167.679393,207.346497 C168.904008,207.346497 169.958477,206.864537 170.644028,205.988556 C171.329578,205.112575 171.695786,203.818672 171.695786,202.254211 L171.695786,200.899475 Z M186.741074,204.109039 C186.594589,205.456702 186.164723,206.301144 185.347336,207.015991 C184.529949,207.730839 183.501763,208.073944 182.142381,208.073944 C181.193158,208.073944 180.40636,207.840212 179.676865,207.365601 C178.947369,206.890989 178.407427,206.316166 178.008987,205.446045 C177.610548,204.575923 177.428543,203.528295 177.422684,202.409149 L177.422684,200.814819 C177.422684,199.678095 177.610548,198.698308 178.008987,197.819397 C178.407427,196.940486 178.976299,196.277133 179.723373,195.799591 C180.470447,195.32205 181.248822,195.128357 182.221483,195.128357 C183.592583,195.128357 184.613569,195.469387 185.407518,196.210602 C186.201467,196.951816 186.612167,197.803399 186.741074,199.110046 L185.840622,199.110046 C185.571089,196.936207 184.31329,195.839966 182.221483,195.839966 C181.061321,195.839966 180.021625,196.354732 179.333145,197.221924 C178.644665,198.089116 178.303146,199.322258 178.303146,200.851562 L178.303146,202.409149 C178.303146,203.885719 178.699414,205.155513 179.370316,206.034424 C180.041217,206.913334 180.999797,207.365601 182.142381,207.365601 C183.273246,207.365601 184.202313,207.062533 184.776535,206.520538 C185.350757,205.978543 185.705856,205.193029 185.840622,204.109039 L186.741074,204.109039 Z M194.773514,201.495422 L192.860611,203.375214 L192.860611,207.900543 L191.981155,207.900543 L191.981155,195.299988 L192.860611,195.299988 L192.860611,202.356293 L199.557114,195.299988 L200.652298,195.299988 L195.391144,200.894684 L201.084015,207.900543 L200.022873,207.900543 L194.773514,201.495422 Z M214.319565,204.120697 C214.17308,205.46836 213.743214,206.312802 212.925827,207.027649 C212.10844,207.742496 211.080254,208.085602 209.720872,208.085602 C208.771649,208.085602 207.984852,207.85187 207.255356,207.377258 C206.52586,206.902647 205.985918,206.327824 205.587479,205.457703 C205.189039,204.587581 205.007034,203.539953 205.001175,202.420807 L205.001175,200.826477 C205.001175,199.689753 205.189039,198.709965 205.587479,197.831055 C205.985918,196.952144 206.554791,196.28879 207.301865,195.811249 C208.048939,195.333707 208.827313,195.140015 209.799974,195.140015 C211.171075,195.140015 212.19206,195.481045 212.986009,196.22226 C213.779958,196.963474 214.190658,197.815057 214.319565,199.121704 L213.419113,199.121704 C213.149581,196.947865 211.891781,195.851624 209.799974,195.851624 C208.639812,195.851624 207.600116,196.36639 206.911636,197.233582 C206.223156,198.100773 205.881638,199.333916 205.881638,200.86322 L205.881638,202.420807 C205.881638,203.897377 206.277905,205.167171 206.948807,206.046082 C207.619709,206.924992 208.578289,207.377258 209.720872,207.377258 C210.851737,207.377258 211.780805,207.074191 212.355026,206.532196 C212.929248,205.990201 213.284347,205.204687 213.419113,204.120697 L214.319565,204.120697 Z M228.83313,207.895645 L227.945053,207.895645 L227.945053,201.761856 L220.436325,201.761856 L220.436325,207.895645 L219.551163,207.895645 L219.551163,195.299988 L220.436325,195.299988 L220.436325,201.049652 L227.945053,201.049652 L227.945053,195.299988 L228.83313,195.299988 L228.83313,207.895645 Z M241.727951,204.316193 L235.778183,204.316193 L234.455826,207.9086 L233.538773,207.9086 L238.308853,195.302002 L239.199905,195.302002 L243.974014,207.9086 L243.057785,207.9086 L241.727951,204.316193 Z M236.022842,203.594177 L241.465134,203.594177 L238.746288,196.210144 L236.022842,203.594177 Z M249.604141,207.903549 L248.721176,207.903549 L248.721176,195.299988 L249.604141,195.299988 L249.604141,207.903549 Z M265.007889,207.907333 L264.086761,207.907333 L256.570633,196.719238 L256.570633,207.907333 L255.681168,207.907333 L255.681168,195.299988 L256.615417,195.299988 L264.137756,206.495865 L264.137756,195.299988 L265.007889,195.299988 L265.007889,207.907333 Z" id="THINKING-IN-BLOCKCHA"></path>
            <g id="type" transform="translate(0.000000, 144.516000)">
                <path d="M265.2226,24.4405 C265.1396,21.5825 263.4356,19.0535 260.7426,17.8435 L260.4396,17.7335 C258.8176,17.2115 257.1136,16.9365 255.3816,16.9365 L245.2666,16.9365 C243.8376,16.9365 242.3806,16.6895 240.9786,16.2495 C239.3296,15.7545 238.2306,14.2705 238.2306,12.5935 L238.2306,9.8445 C238.2306,8.1685 239.3296,6.7115 241.0066,6.1895 C242.3806,5.7215 243.8096,5.5025 245.2666,5.5025 L261.6766,5.5025 L261.6766,2.7805 L245.2666,2.7805 C243.5076,2.7805 241.7756,3.0555 240.1266,3.6055 C237.3236,4.4845 235.4266,6.9865 235.4266,9.8445 L235.4266,12.5935 C235.4266,15.4525 237.2956,17.9535 240.0996,18.8335 C241.7756,19.3825 243.5076,19.6575 245.2666,19.6575 L255.3816,19.6575 C256.8116,19.6575 258.2136,19.8785 259.6156,20.3445 C261.2916,21.1145 262.3636,22.7095 262.4186,24.4955 L262.4186,26.2545 C262.3636,28.0685 261.2916,29.6635 259.5606,30.4605 C258.2136,30.8995 256.8116,31.1205 255.3816,31.1205 L236.8006,31.1205 L236.8006,33.8415 L255.3816,33.8415 C257.1136,33.8415 258.8176,33.5665 260.4676,33.0445 L260.7426,32.9345 C263.4086,31.7245 265.1396,29.1955 265.1946,26.3095 L265.2226,24.4405 Z" id="Fill-13"></path>
                <path d="M203.7341,23.7535 L211.8431,7.9755 L219.9511,23.7535 L203.7341,23.7535 Z M195.2681,34.2265 L198.3471,34.2265 L202.3591,26.4195 L221.3261,26.4195 L225.3391,34.2265 L228.4171,34.2265 L211.8421,2.0385 L195.2681,34.2265 Z" id="Fill-4"></path>
                <polygon id="Fill-6" points="165.1697 2.7535 162.4757 2.7535 162.4757 33.8685 189.2757 33.8685 189.2757 31.2575 165.1697 31.2575"></polygon>
                <path d="M147.3581,21.7194 C147.1931,27.2714 142.5201,31.6694 136.7211,31.7244 L134.7141,31.7244 C128.9141,31.6694 124.2411,27.2714 124.0771,21.7744 L124.0771,2.1214 L121.2451,2.1214 L121.2451,21.8294 C121.4381,28.8934 127.3471,34.5014 134.6861,34.5834 L136.7211,34.5834 C144.0591,34.5014 149.9421,28.9214 150.1621,21.8024 L150.1621,2.1484 L147.3301,2.1484 L147.3301,21.7194 L147.3581,21.7194 Z" id="Fill-15"></path>
                <path d="M107.6667,26.9694 C107.6667,28.7834 106.4847,30.3784 104.6977,30.9554 L104.5327,31.0104 C103.1317,31.4774 101.6747,31.6974 100.1627,31.6974 L83.8077,31.6974 L83.8077,19.4654 L103.2967,19.4654 C105.7157,19.8234 107.5837,21.8024 107.6667,24.1654 L107.6667,26.9694 Z M83.8077,4.8974 L97.6617,4.8974 C99.1187,4.8974 100.6027,5.1174 102.0317,5.5844 L102.1967,5.6394 C103.9837,6.2174 105.1657,7.8384 105.1657,9.6254 L105.1657,13.6114 C105.1657,15.0124 104.3407,16.3044 103.0767,16.9364 L83.7807,16.9364 L83.7807,4.8974 L83.8077,4.8974 Z M106.5677,17.6784 C107.5017,16.5244 108.0237,15.0944 108.0237,13.6114 L108.0237,9.6524 C108.0237,6.6294 106.0447,3.9634 103.1037,3.0004 L102.9387,2.9464 C101.2347,2.3964 99.4757,2.1214 97.6617,2.1214 L80.9497,2.1214 L80.9497,34.5014 L100.1627,34.5014 C101.9767,34.5014 103.7357,34.2264 105.4127,33.6764 L105.6047,33.6214 C108.5467,32.6594 110.5257,29.9934 110.5257,26.9974 L110.5257,24.1114 C110.4157,21.4174 108.9037,19.0254 106.5677,17.6784 Z" id="Fill-11"></path>
                <polygon id="Fill-2" points="43.3745 19.9054 64.6765 19.9054 64.6765 17.2384 43.3745 17.2384 43.3745 5.3374 67.2885 5.3374 67.2885 2.6984 40.7085 2.6984 40.7085 34.4464 69.8725 34.4464 69.8725 31.8074 43.3745 31.8074"></polygon>
                <polygon id="Fill-8" points="26.7449 29.1134 -0.0001 0.8014 -0.0001 33.8684 2.6939 33.8684 2.6939 7.4814 29.4109 35.7924 29.4109 2.7534 26.7449 2.7534"></polygon>
            </g>
            <path d="M134.5491,0.5158 L122.2341,36.8268 L122.1251,36.8808 L75.0951,60.0808 L111.4051,72.3938 L134.6591,119.5358 L147.0001,83.2518 L147.1101,83.1968 L194.1411,59.9978 L157.8301,47.6838 L134.5491,0.5158 Z M135.2641,11.0708 L153.6801,48.3988 L116.3531,66.8148 L135.2641,11.0708 Z M111.3501,68.1348 L85.6491,59.4208 L86.2271,59.1458 L120.4211,42.2688 L111.5971,68.2448 L111.3501,68.1348 Z M118.1111,70.4428 L118.6891,70.1678 L156.5111,51.5048 L183.5851,60.6848 L183.0091,60.9598 L145.1861,79.6228 L118.1111,70.4428 Z M116.8471,74.3188 L142.7681,83.0588 L133.9721,109.0348 L116.8471,74.3188 Z" id="Shape"></path>
        </g>
    </g>
</svg>